# xmcd
#
# Track frame offsets:
# 150
# 14525
# 33272
# 48812
# 67852
# 79112
# 94425
# 113400
# 140107
# 158342
#
# Disc length: 2328 seconds
#
# Revision: 1
# Processed by: cddbd v1.5.1PL0 Copyright (c) Steve Scherf et al.
# Submitted via: Easy CD Ripper 1.45
#
DISCID=7209160a
DTITLE=Adrian's Lunch - Worlds Come Alive
DYEAR=1996
DGENRE=Folk/Rock
TTITLE0=Love You Send Me
TTITLE1=Adrian's Lunch - Back on the Tracks
TTITLE2=Adrian's Lunch - Is it Art?
TTITLE3=Adrian's Lunch - Move
TTITLE4=Adrian's Lunch - Lunch Counter Blues
TTITLE5=Adrian's Lunch - Worlds Come Alive
TTITLE6=Adrian's Lunch - 'Round Here
TTITLE7=Adrian's Lunch - Biding My Time
TTITLE8=Adrian's Lunch - No Sweeter Than This
TTITLE9=Adrian's Lunch - Things You Hide
EXTD=
EXTT0=
EXTT1=
EXTT2=
EXTT3=
EXTT4=
EXTT5=
EXTT6=
EXTT7=
EXTT8=
EXTT9=
PLAYORDER=
